<svg xmlns="http://www.w3.org/2000/svg" width="597.28669" height="150" viewBox="0 0 597.28669 150"><defs><style>.a{fill:#58595b;}.b{font-size:47px;fill:#59595b;font-family:BrandonText-Bold, Brandon Text;font-weight:700;}.c{letter-spacing:-0.017em;}.d{font-size:63.62718px;}.e{letter-spacing:-0.039em;}.f{fill:#224d55;}</style></defs><title>LogoLockup2</title><rect class="a" x="136.04846" width="1.71429" height="150"/><text class="b" transform="translate(182.43512 61.04883)">G<tspan class="c" x="33.74561" y="0">O</tspan><tspan x="70.875" y="0">VERNOR</tspan><tspan class="d"><tspan x="0" y="60">DOUG DUCE</tspan><tspan class="e" x="376.98535" y="60">Y</tspan></tspan></text><polygon class="f" points="83.592 44.309 83.122 84.646 82.491 124.567 61.927 124.129 55.336 123.926 52.932 123.915 20.874 110.381 0 101.119 0.128 100.531 0.278 100.232 0.256 99.826 0.427 99.484 0.214 99.164 0.352 98.875 0.652 98.737 1.186 98.245 1.506 97.743 1.688 97.316 1.752 97.091 1.987 96.963 2.286 97.027 2.617 97.284 2.916 97.294 3.493 97.273 3.803 97.017 4.23 96.974 4.487 96.707 4.465 96.173 4.893 95.874 5.437 95.457 5.576 94.773 5.501 94.357 5.202 93.908 5.544 93.555 5.213 93.246 5.224 92.786 5.032 92.284 4.519 92.071 4.145 92.039 3.846 92.252 3.493 92.188 3.247 91.91 2.98 92.124 2.745 91.942 2.543 91.451 2.201 91.056 2.307 90.671 2.617 90.073 2.863 89.357 2.745 88.855 2.873 88.439 2.927 88.043 2.788 87.755 2.457 87.701 2.211 87.456 2.51 87.028 2.81 86.601 2.639 86.163 2.35 85.789 2.639 85.586 3.173 85.469 3.376 85.565 3.728 85.341 3.953 84.871 4.348 84.272 4.722 84.048 4.999 83.546 5.149 83.45 5.491 83.247 5.17 82.755 5.416 82.296 5.512 81.826 5.534 81.11 5.865 80.961 6.078 80.715 5.875 80.202 5.918 79.7 5.726 79.251 5.673 78.707 5.801 78.119 6.046 77.97 5.918 77.489 5.982 77.147 5.769 76.965 5.769 76.624 6.036 76.463 6.313 76.346 6.816 75.919 7.051 75.406 7.264 75.192 7.2 74.711 7.392 74.156 7.927 73.814 8.471 73.739 8.931 73.472 9.251 73.088 9.518 72.938 10.17 72.81 10.522 72.511 10.885 72.03 11.366 71.667 11.687 71.464 11.74 71.015 11.655 70.577 11.398 70.321 11.238 69.947 10.64 69.776 10.416 69.37 10.074 69.06 9.775 68.932 9.604 68.526 9.273 68.238 8.781 68.163 8.525 67.939 8.567 67.394 8.834 67.009 8.696 66.518 8.162 65.93 7.905 65.61 8.065 65.268 7.766 64.702 7.638 64.007 7.499 63.441 7.051 62.971 6.602 62.64 6.377 62.202 6.271 61.572 6.025 61.134 5.566 60.867 5.448 60.493 5.587 59.692 5.715 59.296 5.512 59.04 5.587 58.698 5.555 58.249 5.598 57.929 5.758 57.608 6.046 57.512 6.121 57.224 5.95 56.968 5.694 56.882 5.63 56.626 5.843 56.391 6.217 56.433 6.655 56.273 6.794 55.921 6.751 55.461 6.794 55.141 6.645 54.681 6.677 53.891 6.495 53.442 6.645 52.844 6.431 52.043 6.164 51.37 5.736 50.814 5.608 50.131 5.715 49.479 5.95 49.255 5.95 48.496 6.143 48.058 5.993 47.545 5.598 47.161 5.747 46.862 5.811 46.531 5.566 46.242 5.544 45.858 5.758 45.473 5.662 44.95 5.694 44.351 5.758 43.7 5.971 43.497 6.078 43.155 5.694 42.781 5.662 42.311 5.427 42.087 5.501 41.723 5.267 41.424 5.491 40.815 5.576 40.452 5.373 39.939 5.491 39.384 5.79 39.245 6.303 39.277 6.645 39.138 6.986 38.85 7.296 39.063 7.563 38.7 8.055 38.636 8.461 38.839 8.76 38.839 8.909 39.106 9.315 38.999 9.54 39.224 9.828 39.16 10.074 38.871 10.458 38.893 10.843 39.331 11.067 39.747 11.292 40.057 11.292 40.463 11.409 40.677 11.847 40.815 12.189 41.275 12.595 41.392 13.097 41.136 13.578 41.136 13.802 40.58 14.048 40.228 14.026 39.843 14.379 39.598 14.539 39.277 14.71 38.871 15.084 38.572 15.191 38.219 15.981 24.567 31.011 25.454 46.363 26.116 63.529 26.725 81.038 27.249 83.816 27.259 83.592 44.309"/></svg>