<?xml version="1.0" encoding="utf-8"?>
<!-- Generator: Adobe Illustrator 23.0.4, SVG Export Plug-In . SVG Version: 6.00 Build 0)  -->
<svg version="1.1" id="Layer_1" xmlns="http://www.w3.org/2000/svg" xmlns:xlink="http://www.w3.org/1999/xlink" x="0px" y="0px"
	 viewBox="0 0 120 28" style="enable-background:new 0 0 120 28;" xml:space="preserve">
<style type="text/css">
	.st0{fill:#FFFFFF;}
	.st1{font-family:'BrandonText-Bold';}
	.st2{font-size:8.3333px;}
</style>
<g>
	<path class="st0" d="M12.1,3.6C6.1,3.6,1.4,8.2,1.4,14c0,6,4.6,10.4,10.8,10.4c6.2,0,10.8-4.5,10.8-10.4C22.9,8,18.4,3.6,12.1,3.6
		 M16.1,10.4l-0.1,4.7L16,19.8l-2.4-0.1l-0.8,0l-0.3,0l-3.8-1.6L6.3,17l0-0.1l0,0l0,0l0,0l0,0l0,0l0,0l0.1-0.1l0-0.1l0-0.1l0,0l0,0
		l0,0l0,0l0,0l0.1,0l0,0l0.1,0l0,0l0-0.1l0.1,0l0.1,0l0-0.1l0,0l0-0.1l0,0l0,0l0-0.1l0-0.1l-0.1,0l0,0l0,0l0,0l0,0l0,0l0,0l0-0.1
		l0,0l0,0l0-0.1l0-0.1l0-0.1l0,0l0,0l0,0l0,0l0,0l0-0.1l0-0.1l0-0.1l0,0l0,0l0.1,0l0,0l0,0l0-0.1l0-0.1l0,0l0-0.1l0,0l0,0l0-0.1
		l0-0.1l0-0.1l0-0.1l0,0l0,0l0-0.1l0-0.1l0-0.1l0-0.1l0-0.1l0,0l0-0.1l0,0l0,0v0l0,0l0,0l0.1-0.1l0-0.1l0,0l0-0.1l0-0.1l0.1,0l0.1,0
		l0.1,0l0,0l0,0l0.1,0l0,0l0-0.1l0.1,0l0,0l0-0.1l0-0.1l0,0l0,0l-0.1,0l0,0l0,0l0,0l0,0l0,0l-0.1,0l0,0l0-0.1l0,0l0-0.1l-0.1-0.1
		l0,0l0,0l0-0.1l0-0.1l0-0.1l-0.1-0.1l-0.1,0l0-0.1l0-0.1l0-0.1l-0.1,0l0,0l0-0.1l0,0l0,0l0,0L7,12l0,0l0,0l0,0l0,0l0,0l0,0l0,0l0,0
		l0,0l0.1,0l0,0l0-0.1l0,0l0-0.1l0-0.1l0-0.1l0-0.1l0-0.1l0-0.1L7,11.1l0-0.1L7,11l0,0v-0.1l0-0.1l0-0.1l0,0l0,0l0,0l0,0l0,0l0,0
		l0-0.1l0-0.1l0-0.1l0,0l0,0l0,0l0-0.1l0,0l0,0l0,0L7,10l0,0l0-0.1l0-0.1l0,0l0.1,0l0,0l0,0l0,0l0,0l0.1,0l0,0h0l0,0l0,0l0,0l0,0
		l0,0l0,0l0,0.1l0,0l0,0v0l0,0l0.1,0l0,0.1l0,0l0.1,0h0.1l0-0.1l0,0l0,0l0,0l0,0l0,0l0,0l0,0l0.1-1.6L10,8.2l1.8,0.1l2,0.1l2.1,0.1
		l0.3,0L16.1,10.4z"/>
	<rect x="30.4" y="1.5" class="st0" width="0.3" height="25"/>
	<path class="st0" d="M39.5,12.9h-1.4l3.6-7.8H42l3.6,7.8h-1.5l-0.7-1.5h-3.3L39.5,12.9z M40.7,10.3H43l-1.2-2.6L40.7,10.3z"/>
	<path class="st0" d="M46.7,5.3h2.5c2,0,3.1,1.1,3.1,2.7c0,1.1-0.4,1.9-1.4,2.4l2,2.6h-1.6l-1.6-2.3c-0.2,0-0.4,0-0.7,0h-0.8v2.2
		h-1.4V5.3z M48.1,6.5v3h1c1.3,0,1.7-0.7,1.7-1.5c0-0.8-0.4-1.5-1.7-1.5H48.1z"/>
	<rect x="54" y="5.3" class="st0" width="1.4" height="7.7"/>
	<polygon class="st0" points="63,5.3 63,5.7 58.8,11.7 62.9,11.7 62.9,12.9 56.6,12.9 56.6,12.5 60.8,6.5 56.9,6.5 56.9,5.3 	"/>
	<polygon class="st0" points="73.3,5.2 73.8,5.2 78.5,10.2 78.5,5.3 79.9,5.3 79.9,13 79.5,13 74.7,8.2 74.7,12.9 73.3,12.9 	"/>
	<path class="st0" d="M82.3,12.9h-1.4l3.6-7.8h0.3l3.6,7.8h-1.5l-0.7-1.5h-3.3L82.3,12.9z M83.4,10.3h2.3l-1.2-2.6L83.4,10.3z"/>
	<path class="st0" d="M67.8,5.1c-2.3,0-4.1,1.7-4.1,4c0,2.3,1.7,4,4.1,4c2.4,0,4.1-1.7,4.1-4C71.9,6.8,70.2,5.1,67.8,5.1 M69.3,7.7
		l0,1.8l0,1.8l-0.9,0l-0.3,0l-0.1,0l-1.4-0.6l-0.9-0.4l0,0l0,0l0,0l0,0l0,0l0,0l0,0l0,0l0,0l0,0l0,0l0,0l0,0l0,0l0,0l0,0l0,0l0,0
		l0,0l0,0l0,0l0,0l0,0l0,0l0,0l0,0l0,0l0,0l0,0l0,0l0,0l0,0l0,0l0,0l0,0l0,0l0,0l0,0l0,0l0,0l0,0l0,0l0,0l0,0l0,0l0,0l0,0l0,0l0,0
		l0,0l0,0l0,0l0,0l0,0l0,0l0,0l0,0l0,0l0,0l0,0l0,0l0,0l0,0l0,0l0,0l0,0l0,0l0,0l0,0l0,0l0,0l0,0l0,0l0,0l0,0l0,0v0l0,0l0,0l0,0l0,0
		l0,0l0,0l0,0l0,0l0,0l0,0l0,0l0,0l0,0l0,0l0,0l0,0l0,0l0,0l0,0l0,0l0,0l0,0l0,0l0,0l0,0l0,0l0,0l0,0l0,0l0,0l0,0l0,0l0,0l0,0l0,0
		l0,0l0,0l0,0l0,0l0,0l0,0l0,0l0,0l0,0l0,0l0,0l0,0l0,0l0,0l0,0l0,0l0,0l0,0l0,0l0,0l0,0l0,0l0,0l0,0l0,0l0,0l0,0l0,0l0,0l0,0l0,0
		l0,0l0,0l0,0l0,0l0,0l0,0l0,0v0l0,0l0,0l0,0l0,0l0,0l0,0l0,0l0,0l0,0l0,0l0,0l0,0l0,0l0,0l0,0l0,0l0,0l0,0l0,0l0,0l0,0l0,0l0,0l0,0
		l0,0l0,0l0,0l0,0l0,0l0,0h0l0,0l0,0l0,0l0,0l0,0l0,0l0,0l0,0l0,0v0l0,0l0,0l0,0l0,0l0,0h0l0,0l0,0l0,0l0,0l0,0l0,0l0,0l0,0l0-0.6
		l0.7,0l0.7,0l0.8,0l0.8,0l0.1,0L69.3,7.7z"/>
	<text transform="matrix(1 0 0 1 38.1128 22.71)" class="st0 st1 st2">Governor Doug Ducey</text>
</g>
</svg>
