<svg xmlns="http://www.w3.org/2000/svg" width="196.95" height="42" viewBox="0 0 196.95 42"><title>logo-light</title><path d="M19.84,7.5C9.67,7.5,1.76,15.21,1.76,25c0,10,7.72,17.5,18.08,17.5S38,35,38,25,30.35,7.5,19.84,7.5m6.69,11.41-.09,8-.13,7.87-4-.08-1.3,0h-.48L14.16,32,10,30.12l0-.12,0-.06v-.08l0-.06,0-.07,0-.05.06,0,.1-.1.06-.1,0-.08v-.05l0,0h.06l.06.05h.18l.06-.05h.08l.05-.05v-.11l.08-.06.11-.08,0-.13,0-.09-.06-.08.07-.07-.06-.07v-.09l0-.1-.1,0h-.08l0,0h-.07l-.05-.06-.06,0,0,0,0-.1-.07-.08,0-.07.06-.12,0-.14,0-.1,0-.08v-.08l0-.06h-.07l0,0,.06-.08.06-.09,0-.08-.06-.08.06,0,.1,0,0,0,.07-.05.05-.09.07-.12.08,0,0-.1,0,0,.07,0-.06-.1,0-.09v-.23l.06,0,.05-.05,0-.1v-.1l0-.09v-.1l0-.12.05,0,0-.09,0-.07-.05,0v-.07l.06,0,0,0,.1-.08,0-.11,0,0v-.09l0-.11.1-.07h.11l.09-.06.06-.07.05,0,.13,0,.07-.06.07-.09.1-.07.06,0v-.18L12.29,24l0-.07-.11,0-.05-.08L12,23.79l0,0,0-.08-.06-.06h-.1l0-.05v-.11l0-.07,0-.1-.1-.12-.05-.06,0-.07-.06-.11,0-.13,0-.12-.09-.09-.09-.06-.05-.09,0-.13,0-.08-.1-.05,0-.08,0-.16,0-.07,0-.06,0-.06V21.6l0-.07.06,0v-.05l0-.05-.05,0v-.05l0-.05h.07l.09,0,0-.07v-.15l0-.1V20.8l0-.09,0-.12,0-.16-.06-.13-.08-.11,0-.13,0-.13.05-.05v-.15l0-.08,0-.1-.08-.08,0-.06v-.06l0-.06v-.08l0-.07,0-.11v-.24l0,0,0-.07-.08-.07v-.1l0,0V18.4l0-.06,0-.12,0-.07,0-.1,0-.11.06,0h.1l.07,0,.07-.06.06,0,0-.07h.1l.08,0h0l0,.05.08,0,.05,0H12l0-.05h.08l.08.09,0,.08,0,.06v.08l0,0,.08,0,.07.09.08,0,.1,0h.1l0-.11.05-.07V18l.07-.05,0-.06,0-.08.07-.06,0-.07.16-2.7,3,.18,3,.13,3.39.12,3.46.1h.55Z" transform="translate(-1.76 -4)" fill="#fff"/><rect x="48.71" width="0.48" height="42" fill="#fff"/><path d="M65.85,23.22H63.47l6.06-13H70l6.06,13H73.66l-1.14-2.57H67Zm1.93-4.39h3.93l-2-4.44Z" transform="translate(-1.76 -4)" fill="#fff"/><path d="M77.9,10.31H82c3.44,0,5.17,1.89,5.17,4.59a4,4,0,0,1-2.36,4l3.31,4.37H85.49l-2.74-3.8c-.37,0-.75,0-1.16,0H80.18v3.75H77.9Zm2.28,2.09v5h1.69c2.13,0,2.86-1.14,2.86-2.55s-.71-2.5-2.86-2.5Z" transform="translate(-1.76 -4)" fill="#fff"/><rect x="88.34" y="6.31" width="2.28" height="12.91" fill="#fff"/><polygon points="103.56 6.31 103.56 7 96.49 17.13 103.39 17.13 103.39 19.22 92.72 19.22 92.72 18.52 99.78 8.4 93.2 8.4 93.2 6.31 103.56 6.31" fill="#fff"/><polygon points="120.86 6.23 121.58 6.23 129.57 14.55 129.57 6.31 131.84 6.31 131.84 19.31 131.24 19.31 123.14 11.21 123.14 19.22 120.86 19.22 120.86 6.23" fill="#fff"/><path d="M137.66,23.22h-2.39l6.06-13h.51l6.07,13h-2.45l-1.14-2.57h-5.54Zm1.93-4.39h3.93l-2-4.44Z" transform="translate(-1.76 -4)" fill="#fff"/><path d="M113.3,10.09a6.7,6.7,0,0,0-6.88,6.66,6.9,6.9,0,0,0,13.79,0,6.57,6.57,0,0,0-6.91-6.66m2.55,4.34,0,3,0,3-1.55,0h-.67l-2.41-1-1.57-.7v-.12l0,0v0h0l0,0,0,0V18.4h0l0,0h.13l0,0v0l0,0,0,0V18.2l0,0,0,0,0,0V18l0,0h0l0,0h0l0,0,0,0,0,0v0l0,0v0l0-.05,0-.05V17.7h0l0,0,0,0v0l0,0h.11v0l0,0,0,0,0,0h0l0,0,0,0V17.2h0V17h0V16.9h0v0h0l0,0,0,0v-.09l0,0h0l0,0,0,0,0,0h0l0,0,0,0,0,0,0,0v-.06l0,0v0h0l0,0,0,0h0v0l0,0h0l0,0v0l0,0v0l0,0,0,0v0l0,0v-.1l0,0,0,0v-.08l0,0,0,0v-.12l0,0v-.11h0v0h0v0l0,0h.06v-.26l0-.06,0,0,0,0v-.1l0,0v-.12l0,0v-.1l0,0v-.13l0,0v0l0,0v0h0v0l0,0,0-.05v0l0,0v0h.09l0,0,0,0,0,0h.09v0h0v0h0l0,0h0l0,0,0,0,0,0v.05h0l0,0h0l0,0h0l0,0V14.1l0,0V14l0,0v0l.06-1,1.13.07,1.15.05,1.29,0,1.32,0h.21Z" transform="translate(-1.76 -4)" fill="#fff"/><text transform="translate(61.7 35.63)" font-size="14" fill="#fff" font-family="BrandonText-Bold, Brandon Text" font-weight="700"><tspan letter-spacing="-0.01em">G</tspan><tspan x="9.97" y="0" letter-spacing="-0.01em">ov</tspan><tspan x="24.07" y="0">erno</tspan><tspan x="52" y="0" letter-spacing="-0.02em">r</tspan><tspan x="57.12" y="0"> </tspan><tspan x="60.48" y="0" letter-spacing="-0.01em">D</tspan><tspan x="70.67" y="0">oug </tspan><tspan x="97.02" y="0" letter-spacing="-0.01em">D</tspan><tspan x="107.18" y="0">u</tspan><tspan x="114.64" y="0" letter-spacing="-0.01em">ce</tspan><tspan x="128.49" y="0" letter-spacing="-0.02em">y</tspan></text></svg>