<svg xmlns="http://www.w3.org/2000/svg" width="187.56838" height="40" viewBox="0 0 187.56838 40">
  <title>opus-dark</title>
  <path d="M23.43252,8.33333C13.74607,8.33333,6.2158,15.679,6.2158,25c0,9.55191,7.34561,16.66666,17.21672,16.66666,9.87312,0,17.26493-7.16093,17.26493-16.66666,0-9.64026-7.25531-16.66668-17.26493-16.66668m6.372,10.86485-.08835,7.5805-.11848,7.50221-3.86451-.08231-1.23867-.03814-.45171-.002-6.0246-2.54356-3.92277-1.74056.02407-.11041.02812-.05621-.004-.07628.03216-.06425-.04019-.06023.0261-.0542.05624-.0261.10036-.09234.06022-.09435.03413-.0803.01207-.04217.04417-.02409.05618.01205.06224.04819.05625.002.10838-.004.0582-.04817.08032-.008.04815-.05017-.004-.10039.08032-.05621.10237-.07829.0261-.12848-.01409-.0783-.05618-.08431.06421-.06626-.06219-.05822.002-.08632-.03608-.09435-.09637-.04016-.07027-.006-.05625.04016-.06622-.012-.0462-.0522-.05018.04016-.04417-.03413-.03811-.09236-.06426-.07426L14.529,27.911l.0582-.11242.0462-.13451-.02212-.09435.02408-.0783.01-.07428-.0261-.05421-.06219-.01-.04619-.04618.05618-.0803.05624-.08029-.0321-.08231-.05422-.07027.05422-.03814.10035-.02209.03817.01808.06623-.04217.04215-.08833.07425-.11242.07027-.04217.0522-.09435.02812-.01807.06427-.03814-.06022-.09234.04613-.08632.01807-.08835.004-.13449.06224-.02811.04013-.04618-.03817-.09637.008-.09435-.03609-.08431-.01-.10239.02407-.11042.0462-.0281-.02414-.09034.01207-.06424-.04013-.03412V25.271l.05018-.03012.05219-.02208.09435-.08029.04417-.09637.04013-.04015-.012-.09035.03608-.10438L15.585,24.743l.10237-.01405.08632-.05019.06023-.07228.05017-.0281.12247-.02408.06623-.05621.06825-.09035.09037-.06825.06022-.03814.01-.08433-.016-.0823-.04822-.04818-.03008-.07027-.11242-.03212-.04215-.07629-.06427-.05822-.05618-.02409-.03216-.07628-.06219-.0542-.09239-.01406-.04815-.04215.008-.10239.05018-.07228-.0261-.09234-.10035-.11042-.04822-.06022.03014-.06424-.05624-.1064-.02407-.1305-.0261-.1064-.08431-.08833-.0843-.06223-.04221-.08231-.02-.11844-.0462-.08231-.08632-.0502-.02206-.07025.0261-.15058.02408-.07427-.03817-.04818.01409-.06425-.00606-.08432.008-.06022.03015-.06023.05422-.01807.014-.05419-.03211-.04819-.04821-.01606-.012-.04817.04013-.04418.07027.008.08228-.03011.0261-.06625-.008-.08632.008-.06022-.02806-.08634.006-.14855-.03412-.08432.02812-.11242-.04019-.15056-.05018-.12649-.08032-.10439-.02407-.12848.02009-.12247.04417-.04215v-.14253l.03615-.08231-.02812-.09637-.07432-.07227.02813-.05621.01206-.06224-.04619-.05419-.004-.07228.04019-.07228-.01808-.09836.006-.11242.01207-.12247.04013-.03814.02009-.06424-.07229-.07027-.006-.08833-.04417-.04215.014-.06826-.04411-.05621.04215-.11443.016-.06825-.03817-.09637.02212-.1044.05618-.0261.09637.006.06427-.0261.06421-.05421.0582.04015.05024-.06825.09232-.01206.07628.03816h.05624l.02806.05017.07634-.02006.04215.04215.05416-.012.04619-.0542.07229.004.07224.08231.04221.0783.04215.05821v.07629l.02205.04015.08234.0261.06421.08632.07628.02209.09435-.04819H16.647l.04215-.1044.0462-.06624-.004-.07228.06629-.04616.03008-.06022.03211-.07629.07027-.05622.02009-.06625.14857-2.56565,2.82459.16662,2.88487.12448,3.22612.11443,3.29039.09838.522.002Z" transform="translate(-6.2158 -5)" fill="#172a53"/>
  <rect x="46.39429" width="0.45714" height="40" fill="#58595b"/>
  <path d="M67.25364,23.30336H64.97986l5.772-12.40128h.48949l5.77273,12.40128H74.68751l-1.08524-2.4489H68.32053Zm1.8363-4.18041h3.74293L70.9614,14.89053Z" transform="translate(-6.2158 -5)" fill="#172a53"/>
  <path d="M78.72933,11.00739H82.665c3.271,0,4.91539,1.80111,4.91539,4.37238a3.84179,3.84179,0,0,1-2.23935,3.76054l3.1487,4.16282h-2.5361l-2.60644-3.62058a11.01861,11.01861,0,0,1-1.10209.05277H80.89833v3.56781h-2.169Zm2.169,1.99384v4.80985h1.6099c2.02826,0,2.72807-1.08449,2.72807-2.43131s-.68221-2.37854-2.72807-2.37854Z" transform="translate(-6.2158 -5)" fill="#172a53"/>
  <rect x="84.13666" y="6.00701" width="2.16898" height="12.2965" fill="#172a53"/>
  <polygon points="98.628 6.007 98.628 6.672 91.894 16.31 98.471 16.31 98.471 18.304 88.308 18.304 88.308 17.639 95.025 8.001 88.763 8.001 88.763 6.007 98.628 6.007" fill="#172a53"/>
  <polygon points="115.106 5.937 115.788 5.937 123.397 13.861 123.397 6.007 125.566 6.007 125.566 18.391 124.989 18.391 117.275 10.677 117.275 18.304 115.106 18.304 115.106 5.937" fill="#172a53"/>
  <path d="M135.63927,23.30336h-2.27378l5.772-12.40128h.48949l5.77273,12.40128h-2.32654l-1.08449-2.4489h-5.28249Zm1.83629-4.18041h3.74371L139.347,14.89053Z" transform="translate(-6.2158 -5)" fill="#172a53"/>
  <path d="M112.44423,10.79692a6.38632,6.38632,0,0,0-6.559,6.3494,6.5719,6.5719,0,1,0,6.559-6.3494m2.42749,4.13911-.03366,2.8879-.04514,2.85807-1.47223-.03136-.47189-.01453-.17209-.00076-2.29515-.969-1.49444-.66308.00918-.04207.01071-.02141-.00154-.02906.01225-.02448-.01531-.02294.01-.02065.02142-.00995.03823-.03517.023-.03595.013-.03059.00459-.01606.01683-.00918.0214.00459.02372.01836.02142.00076.04129-.00153.02218-.01836.03059-.00306.01835-.01911-.00152-.03825.0306-.02141.039-.02983.00994-.04894-.00536-.02983-.02141-.03212.02446-.02525-.02369-.02217.00075-.03289-.01375-.03594-.03671-.0153-.02677-.0023-.02143.0153-.02523-.00459-.0176-.01988-.01911.01529-.01683-.013-.01452-.03518-.02448-.02829.00765-.02754.02218-.04283.0176-.05124-.00843-.03595.00917-.02982.00383-.0283-.00994-.02065-.02369-.00383-.0176-.01759.0214-.03059.02143-.03059-.01223-.03135-.02066-.02678.02066-.01452.03823-.00842.01454.00689.02523-.01607.01606-.03365.02829-.04283.02677-.01606.01988-.03594.01072-.00689.02448-.01453-.02294-.03518.01757-.03288.00689-.03366.00154-.05124.02371-.0107.01529-.0176-.01454-.03671.00305-.03594-.01374-.03212-.00383-.039.00917-.04207.0176-.0107-.0092-.03442.0046-.02447-.01529-.013v-.02448l.01912-.01147.01989-.00841.03594-.03059.01683-.03671.01529-.0153-.00458-.03442.01375-.03976.03825-.02448.039-.00535.03289-.01912.02294-.02754.01912-.01071.04665-.00917.02523-.02141.026-.03442.03442-.026.02294-.01453.00383-.03213-.00611-.03135-.01837-.01836-.01146-.02677-.04283-.01224-.01606-.02906-.02448-.02218-.0214-.00918-.01226-.02906-.02369-.02065-.03519-.00535-.01835-.01606.00306-.039.01911-.02753-.00994-.03518-.03823-.04207-.01837-.02294.01148-.02447-.02142-.04054-.00917-.04971-.01-.04054-.03211-.03365-.03212-.0237-.01608-.03136-.00763-.04512-.0176-.03136-.03289-.01912-.0084-.02677.00994-.05736.00918-.02829-.01454-.01836.00536-.02448-.00231-.03212.00306-.02294.01148-.02295.02066-.00688.00535-.02065-.01223-.01835-.01837-.00612-.00458-.01835.01529-.01683.02677.003.03135-.01147.00994-.02523-.00306-.03289.00306-.02294-.01069-.03289.00229-.0566-.013-.03212.01071-.04283-.01531-.05736-.01912-.04818-.0306-.03977-.00917-.04895.00766-.04665.01683-.01606v-.0543l.01377-.03136-.01072-.03671-.02831-.02753.01071-.02142.0046-.02371-.0176-.02064-.00154-.02754.01531-.02753-.00688-.03748.00229-.04283.00459-.04665.01529-.01453.00766-.02447-.02754-.02677-.00229-.03365-.01683-.01606.00535-.026-.01681-.02141.01606-.0436.00611-.026-.01454-.03671.00843-.03977.0214-.00994.03672.00229.02448-.00994.02446-.02065.02217.01529.01914-.026.03517-.00459.02906.01454h.02143l.01069.01911.02908-.00764.01606.01606.02063-.00459.0176-.02065.02754.00153.02752.03136.01608.02982.01606.02218v.02907l.0084.01529.03137.00994.02446.03289.02906.00841.03594-.01835h.03443l.01605-.03977.0176-.02524-.00154-.02754.02526-.01758.01146-.02295.01223-.02906.02677-.02141.00765-.02525.0566-.97741,1.07607.06347,1.099.04743,1.229.04359,1.25352.03748.19886.00076Z" transform="translate(-6.2158 -5)" fill="#172a53"/>
  <text transform="translate(58.76468 33.93555)" font-size="13.33333" fill="#59595c" font-family="BrandonText-Bold, Brandon Text" font-weight="700"><tspan letter-spacing="-0.00601em">G</tspan><tspan x="9.49316" y="0" letter-spacing="-0.01399em">ov</tspan><tspan x="22.91992" y="0">erno</tspan><tspan x="49.51953" y="0" letter-spacing="-0.02102em">r</tspan><tspan x="54.39941" y="0"> </tspan><tspan x="57.59961" y="0" letter-spacing="-0.00703em">D</tspan><tspan x="67.30566" y="0">oug </tspan><tspan x="92.39844" y="0" letter-spacing="-0.00901em">D</tspan><tspan x="102.07813" y="0" letter-spacing="0.00007em">u</tspan><tspan x="109.18555" y="0" letter-spacing="-0.00703em">ce</tspan><tspan x="122.37207" y="0" letter-spacing="-0.023em">y</tspan></text>
</svg>
