<svg xmlns="http://www.w3.org/2000/svg" width="198.69299" height="40" viewBox="0 0 198.69299 40"><defs><style>.a,.b{fill:#fff;}.b{fill-rule:evenodd;}</style></defs><path class="a" d="M74.09118,10a4.23778,4.23778,0,1,1-4.2265,4.24977A4.22989,4.22989,0,0,1,74.09118,10Zm0,6.94478a2.7074,2.7074,0,1,0-2.69647-2.695A2.71273,2.71273,0,0,0,74.09118,16.94478Z" transform="translate(-25.6535 -5)"/><path class="a" d="M79.84189,10.34106a.22341.22341,0,0,1,.224-.22325h4.79081a.22341.22341,0,0,1,.224.22325v.96572a.22341.22341,0,0,1-.224.22325H81.37193v2.21361h2.90881a.23107.23107,0,0,1,.22252.22325v.965a.23172.23172,0,0,1-.22252.224H81.37193v2.9779a.23069.23069,0,0,1-.22253.224H80.06587a.224.224,0,0,1-.224-.224Z" transform="translate(-25.6535 -5)"/><path class="a" d="M86.39544,10.34106a.22341.22341,0,0,1,.224-.22325h4.79081a.22341.22341,0,0,1,.224.22325v.96572a.22341.22341,0,0,1-.224.22325H87.92547v2.21361h2.90881a.23107.23107,0,0,1,.22253.22325v.965a.23173.23173,0,0,1-.22253.224H87.92547v2.9779a.23068.23068,0,0,1-.22252.224H86.61942a.224.224,0,0,1-.224-.224Z" transform="translate(-25.6535 -5)"/><path class="a" d="M92.949,10.34106a.23107.23107,0,0,1,.22252-.22325h1.09517a.23132.23132,0,0,1,.224.22325v7.7927a.232.232,0,0,1-.224.224H93.17151a.23173.23173,0,0,1-.22252-.224Z" transform="translate(-25.6535 -5)"/><path class="a" d="M100.25737,10a3.983,3.983,0,0,1,2.84773,1.09444.21894.21894,0,0,1,.01163.33015l-.717.741a.18906.18906,0,0,1-.29525,0,2.78386,2.78386,0,0,0-1.81218-.69448,2.73292,2.73292,0,0,0,.01163,5.462,2.82383,2.82383,0,0,0,1.80055-.67048.2169.2169,0,0,1,.29525,0l.73011.75338a.22473.22473,0,0,1-.01309.31779,4.03848,4.03848,0,0,1-2.85936,1.1417,4.23779,4.23779,0,1,1,0-8.47554Z" transform="translate(-25.6535 -5)"/><path class="a" d="M104.58568,10.34106a.22215.22215,0,0,1,.22252-.22325h4.79227a.22215.22215,0,0,1,.22252.22325v.96572a.22215.22215,0,0,1-.22252.22325h-3.48476v1.93073h2.90736a.232.232,0,0,1,.224.224v.97664a.224.224,0,0,1-.224.224h-2.90736v2.05943h3.48476a.22277.22277,0,0,1,.22252.224v.965a.22277.22277,0,0,1-.22252.224H104.8082a.22277.22277,0,0,1-.22252-.224Z" transform="translate(-25.6535 -5)"/><path class="a" d="M117.92984,10a4.23778,4.23778,0,1,1-4.2265,4.24977A4.22988,4.22988,0,0,1,117.92984,10Zm0,6.94478a2.7074,2.7074,0,1,0-2.69646-2.695A2.71274,2.71274,0,0,0,117.92984,16.94478Z" transform="translate(-25.6535 -5)"/><path class="a" d="M123.68056,10.34106a.22341.22341,0,0,1,.224-.22325h4.79081a.2234.2234,0,0,1,.224.22325v.96572a.2234.2234,0,0,1-.224.22325h-3.48476v2.21361h2.90881a.23107.23107,0,0,1,.22252.22325v.965a.23172.23172,0,0,1-.22252.224h-2.90881v2.9779a.23069.23069,0,0,1-.22252.224h-1.08353a.224.224,0,0,1-.224-.224Z" transform="translate(-25.6535 -5)"/><path class="a" d="M134.04755,11.53h-1.802a.22341.22341,0,0,1-.224-.22325v-.96572a.22341.22341,0,0,1,.224-.22325h5.14423a.2234.2234,0,0,1,.224.22325v.96572a.2234.2234,0,0,1-.224.22325h-1.80056v6.60373a.232.232,0,0,1-.224.224h-1.09516a.23069.23069,0,0,1-.22253-.224Z" transform="translate(-25.6535 -5)"/><path class="a" d="M138.9169,10.34106a.23132.23132,0,0,1,.224-.22325h1.09371a.22341.22341,0,0,1,.224.22325v3.1197h3.83817v-3.1197a.22341.22341,0,0,1,.224-.22325h1.08208a.23132.23132,0,0,1,.224.22325v7.7927a.232.232,0,0,1-.224.224h-1.08208a.224.224,0,0,1-.224-.224V14.88535h-3.83817v3.24841a.224.224,0,0,1-.224.224h-1.09371a.232.232,0,0,1-.224-.224Z" transform="translate(-25.6535 -5)"/><path class="a" d="M147.82367,10.34106a.22341.22341,0,0,1,.224-.22325h4.79081a.22341.22341,0,0,1,.224.22325v.96572a.22341.22341,0,0,1-.224.22325h-3.48475v1.93073h2.90735a.232.232,0,0,1,.224.224v.97664a.224.224,0,0,1-.224.224h-2.90735v2.05943h3.48475a.224.224,0,0,1,.224.224v.965a.224.224,0,0,1-.224.224h-4.79081a.224.224,0,0,1-.224-.224Z" transform="translate(-25.6535 -5)"/><path class="a" d="M161.16784,10a4.45283,4.45283,0,0,1,2.87245,1.09444.22914.22914,0,0,1,.01163.33015l-.73011.765a.20241.20241,0,0,1-.30688,0,2.66622,2.66622,0,0,0-1.77728-.68285,2.71414,2.71414,0,0,0,.01163,5.42639,3.695,3.695,0,0,0,1.40205-.29379V15.63873h-.94245a.21451.21451,0,0,1-.224-.21235V14.497a.2166.2166,0,0,1,.224-.224H163.969a.22186.22186,0,0,1,.21234.224v3.01353a.22644.22644,0,0,1-.09453.18761,5.94637,5.94637,0,0,1-2.919.76575,4.232,4.232,0,0,1,0-8.46391Z" transform="translate(-25.6535 -5)"/><path class="a" d="M169.615,10a4.23778,4.23778,0,1,1-4.2265,4.24977A4.23019,4.23019,0,0,1,169.615,10Zm0,6.94478a2.7074,2.7074,0,1,0-2.69647-2.695A2.7118,2.7118,0,0,0,169.615,16.94478Z" transform="translate(-25.6535 -5)"/><path class="a" d="M174.17749,10.424a.20809.20809,0,0,1,.2007-.30615h1.19989a.21669.21669,0,0,1,.20071.12944l2.27178,5.06133h.05817l2.27178-5.06133a.21837.21837,0,0,1,.20071-.12944h1.20134a.20741.20741,0,0,1,.19925.30615l-3.6491,7.92214a.21121.21121,0,0,1-.19925.12944h-.11781a.21182.21182,0,0,1-.20071-.12944Z" transform="translate(-25.6535 -5)"/><path class="a" d="M182.99118,10.34106a.22341.22341,0,0,1,.224-.22325H188.006a.2234.2234,0,0,1,.224.22325v.96572a.2234.2234,0,0,1-.224.22325h-3.48476v1.93073h2.90736a.232.232,0,0,1,.224.224v.97664a.224.224,0,0,1-.224.224h-2.90736v2.05943H188.006a.224.224,0,0,1,.224.224v.965a.224.224,0,0,1-.224.224h-4.79081a.224.224,0,0,1-.224-.224Z" transform="translate(-25.6535 -5)"/><path class="a" d="M189.76725,10.34106a.22341.22341,0,0,1,.224-.22325h3.367a2.54941,2.54941,0,0,1,2.56557,2.53066,2.59882,2.59882,0,0,1-1.74238,2.378l1.61293,2.99026a.22249.22249,0,0,1-.2007.34106h-1.23479a.20225.20225,0,0,1-.18908-.10618l-1.56494-3.119h-1.30751v3.00117a.232.232,0,0,1-.224.224h-1.08208a.224.224,0,0,1-.224-.224Zm3.46148,3.532a1.19991,1.19991,0,0,0,1.165-1.20134,1.17156,1.17156,0,0,0-1.165-1.14171h-1.91981v2.34305Z" transform="translate(-25.6535 -5)"/><path class="a" d="M197.53232,10.21162A.22125.22125,0,0,1,197.7563,10h.176a.25946.25946,0,0,1,.20071.08217l4.80244,5.121h.02327V10.34106a.22341.22341,0,0,1,.224-.22325h1.08353a.23.23,0,0,1,.22252.22325v7.92287a.22043.22043,0,0,1-.22252.21161h-.1658a.25889.25889,0,0,1-.19926-.08217L199.074,13.07243h-.02327v5.06133a.224.224,0,0,1-.224.224H197.7563a.232.232,0,0,1-.224-.224Z" transform="translate(-25.6535 -5)"/><path class="a" d="M210.23072,10a4.23778,4.23778,0,1,1-4.2265,4.24977A4.2302,4.2302,0,0,1,210.23072,10Zm0,6.94478a2.7074,2.7074,0,1,0-2.69646-2.695A2.71179,2.71179,0,0,0,210.23072,16.94478Z" transform="translate(-25.6535 -5)"/><path class="a" d="M215.98144,10.34106a.22341.22341,0,0,1,.224-.22325h3.36694a2.5494,2.5494,0,0,1,2.56557,2.53066,2.59881,2.59881,0,0,1-1.74237,2.378l1.61293,2.99026a.22249.22249,0,0,1-.20071.34106H220.573a.20225.20225,0,0,1-.18908-.10618l-1.56494-3.119h-1.30751v3.00117a.232.232,0,0,1-.224.224h-1.08208a.224.224,0,0,1-.224-.224Zm3.46148,3.532a1.19991,1.19991,0,0,0,1.165-1.20134,1.17156,1.17156,0,0,0-1.165-1.14171h-1.91981v2.34305Z" transform="translate(-25.6535 -5)"/><path class="a" d="M69.86441,23.41712a.45142.45142,0,0,1,.43237-.45566h5.6863a8.3992,8.3992,0,1,1,0,16.79833h-5.6863a.45191.45191,0,0,1-.43237-.45566Zm5.83188,13.41509a5.217,5.217,0,0,0,5.39952-5.4956A5.21024,5.21024,0,0,0,75.69629,25.865H72.95941V36.83221Z" transform="translate(-25.6535 -5)"/><path class="a" d="M95.1398,22.72125a8.63941,8.63941,0,1,1-8.6139,8.6634A8.62438,8.62438,0,0,1,95.1398,22.72125Zm0,14.159a5.51968,5.51968,0,1,0-5.49415-5.4956A5.53161,5.53161,0,0,0,95.1398,36.88025Z" transform="translate(-25.6535 -5)"/><path class="a" d="M106.71477,23.41712a.47169.47169,0,0,1,.45566-.45566h2.27976a.45577.45577,0,0,1,.45567.45566V33.42421a3.492,3.492,0,0,0,6.98341.02329V23.41712a.45577.45577,0,0,1,.45566-.45566h2.27977a.47169.47169,0,0,1,.45566.45566v10.1745a6.68867,6.68867,0,0,1-13.36559,0Z" transform="translate(-25.6535 -5)"/><path class="a" d="M131.63058,22.72125a9.07074,9.07074,0,0,1,5.85518,2.23172.46425.46425,0,0,1,.02475.67185l-1.48782,1.55988a.41018.41018,0,0,1-.62453,0A5.44209,5.44209,0,0,0,131.7747,25.793a5.53319,5.53319,0,0,0,.0233,11.06254,7.51054,7.51054,0,0,0,2.85625-.59979V34.21615h-1.92018a.43627.43627,0,0,1-.45566-.43236V31.88835a.44132.44132,0,0,1,.45566-.45566h4.60757a.451.451,0,0,1,.43237.45566v6.14342a.463.463,0,0,1-.19217.38433,12.12993,12.12993,0,0,1-5.95126,1.55915,8.627,8.627,0,0,1,0-17.254Z" transform="translate(-25.6535 -5)"/><path class="a" d="M146.99788,23.41712a.45142.45142,0,0,1,.43237-.45566H153.118a8.3992,8.3992,0,1,1,0,16.79833h-5.68776a.45191.45191,0,0,1-.43237-.45566Zm5.83189,13.41509a5.217,5.217,0,0,0,5.39952-5.4956,5.21025,5.21025,0,0,0-5.39952-5.47158h-2.73543V36.83221Z" transform="translate(-25.6535 -5)"/><path class="a" d="M164.47462,23.41712a.47168.47168,0,0,1,.45566-.45566H167.21a.45576.45576,0,0,1,.45566.45566V33.42421a3.49205,3.49205,0,0,0,6.98342.02329V23.41712a.45576.45576,0,0,1,.45566-.45566h2.27976a.473.473,0,0,1,.45712.45566v10.1745a6.68943,6.68943,0,0,1-13.367,0Z" transform="translate(-25.6535 -5)"/><path class="a" d="M189.43847,22.72125a8.12136,8.12136,0,0,1,5.80714,2.23172.44515.44515,0,0,1,.02475.67185l-1.46453,1.51184a.38388.38388,0,0,1-.59978,0,5.67762,5.67762,0,0,0-3.69479-1.41576,5.5712,5.5712,0,0,0,.02329,11.1346,5.761,5.761,0,0,0,3.6715-1.367.44079.44079,0,0,1,.59978,0l1.48782,1.53586a.45715.45715,0,0,1-.02329.64782A8.23758,8.23758,0,0,1,189.43847,40a8.63941,8.63941,0,1,1,0-17.27875Z" transform="translate(-25.6535 -5)"/><path class="a" d="M198.2751,23.41712a.45577.45577,0,0,1,.45566-.45566h9.76834a.45576.45576,0,0,1,.45566.45566v1.96822a.45577.45577,0,0,1-.45566.45567h-7.10424v3.935h5.928a.47221.47221,0,0,1,.45566.45566v1.993a.45531.45531,0,0,1-.45566.45566h-5.928v4.19995h7.10424a.4553.4553,0,0,1,.45566.45566v1.96822a.45622.45622,0,0,1-.45566.45566h-9.76834a.45623.45623,0,0,1-.45566-.45566Z" transform="translate(-25.6535 -5)"/><path class="a" d="M215.60772,31.67289l-5.47231-8.01557a.4446.4446,0,0,1,.38433-.69586h2.44863a.47559.47559,0,0,1,.38287.21618l3.84037,5.51817,3.83892-5.51817a.47846.47846,0,0,1,.38432-.21618h2.47193a.44422.44422,0,0,1,.38433.69586l-5.54364,7.99082v7.656a.47221.47221,0,0,1-.45566.45566h-2.20843a.45622.45622,0,0,1-.45566-.45566Z" transform="translate(-25.6535 -5)"/><polygon class="b" points="0 32.094 0 31.366 0.582 30.366 1.426 30.238 1.946 29.544 1.817 28.376 0.844 28.248 0.582 26.689 0.711 25.71 1.426 24.696 1.817 23.6 1.426 22.218 2.184 20.819 3.888 19.608 2.693 18.212 1.817 16.479 1.04 15.616 1.04 13.766 1.431 13.349 0.711 11.046 0.387 6.623 1.431 6.107 2.563 6.366 3.235 7.217 3.76 7.217 4.4 5.85 4.4 0 33.687 0 33.687 40 22.137 40 0 32.094"/></svg>