<svg xmlns="http://www.w3.org/2000/svg" width="149.32133" height="37.5" viewBox="0 0 149.32133 37.5"><title>opus-light</title><rect x="34.01211" width="0.42857" height="37.5" fill="#fff"/><text transform="translate(45.60887 15.26221)" font-size="11.75" fill="#fff" font-family="BrandonText-Bold, Brandon Text" font-weight="700">G<tspan x="8.43652" y="0" letter-spacing="-0.01704em">O</tspan><tspan x="17.71875" y="0">VERNOR</tspan><tspan font-size="15.90679"><tspan x="0" y="14.99951">DOUG DUCE</tspan><tspan x="94.24609" y="14.99951" letter-spacing="-0.03898em">Y</tspan></tspan></text><polygon points="20.898 11.077 20.78 21.162 20.623 31.142 15.482 31.032 13.834 30.982 13.233 30.979 5.218 27.595 0 25.28 0.032 25.133 0.069 25.058 0.064 24.957 0.107 24.871 0.053 24.791 0.088 24.719 0.163 24.684 0.296 24.561 0.377 24.436 0.422 24.329 0.438 24.273 0.497 24.241 0.571 24.257 0.654 24.321 0.729 24.324 0.873 24.318 0.951 24.254 1.058 24.243 1.122 24.177 1.116 24.043 1.223 23.968 1.359 23.864 1.394 23.693 1.375 23.589 1.301 23.477 1.386 23.389 1.303 23.311 1.306 23.197 1.258 23.071 1.13 23.018 1.036 23.01 0.961 23.063 0.873 23.047 0.812 22.978 0.745 23.031 0.686 22.986 0.636 22.863 0.55 22.764 0.577 22.668 0.654 22.518 0.716 22.339 0.686 22.214 0.718 22.11 0.732 22.011 0.697 21.939 0.614 21.925 0.553 21.864 0.628 21.757 0.702 21.65 0.66 21.541 0.588 21.447 0.66 21.397 0.793 21.367 0.844 21.391 0.932 21.335 0.988 21.218 1.087 21.068 1.18 21.012 1.25 20.886 1.287 20.862 1.373 20.812 1.293 20.689 1.354 20.574 1.378 20.456 1.383 20.278 1.466 20.24 1.52 20.179 1.469 20.051 1.48 19.925 1.431 19.813 1.418 19.677 1.45 19.53 1.512 19.492 1.48 19.372 1.496 19.287 1.442 19.241 1.442 19.156 1.509 19.116 1.578 19.086 1.704 18.98 1.763 18.851 1.816 18.798 1.8 18.678 1.848 18.539 1.982 18.453 2.118 18.435 2.233 18.368 2.313 18.272 2.38 18.235 2.542 18.202 2.631 18.128 2.721 18.007 2.842 17.917 2.922 17.866 2.935 17.754 2.914 17.644 2.85 17.58 2.81 17.487 2.66 17.444 2.604 17.343 2.518 17.265 2.444 17.233 2.401 17.132 2.318 17.059 2.195 17.041 2.131 16.985 2.142 16.848 2.209 16.752 2.174 16.629 2.04 16.483 1.976 16.402 2.016 16.317 1.942 16.175 1.91 16.002 1.875 15.86 1.763 15.743 1.65 15.66 1.594 15.55 1.568 15.393 1.506 15.283 1.391 15.217 1.362 15.123 1.397 14.923 1.429 14.824 1.378 14.76 1.397 14.675 1.389 14.562 1.399 14.482 1.439 14.402 1.512 14.378 1.53 14.306 1.488 14.242 1.423 14.221 1.407 14.156 1.461 14.098 1.554 14.108 1.664 14.068 1.698 13.98 1.688 13.865 1.698 13.785 1.661 13.67 1.669 13.473 1.624 13.361 1.661 13.211 1.608 13.011 1.541 12.842 1.434 12.704 1.402 12.533 1.429 12.37 1.488 12.314 1.488 12.124 1.536 12.015 1.498 11.886 1.399 11.79 1.437 11.715 1.453 11.633 1.391 11.561 1.386 11.464 1.439 11.368 1.415 11.237 1.423 11.088 1.439 10.925 1.493 10.874 1.52 10.789 1.423 10.695 1.415 10.578 1.357 10.522 1.375 10.431 1.317 10.356 1.373 10.204 1.394 10.113 1.343 9.985 1.373 9.846 1.447 9.811 1.576 9.819 1.661 9.785 1.747 9.712 1.824 9.766 1.891 9.675 2.014 9.659 2.115 9.71 2.19 9.71 2.227 9.777 2.329 9.75 2.385 9.806 2.457 9.79 2.518 9.718 2.615 9.723 2.711 9.833 2.767 9.937 2.823 10.014 2.823 10.116 2.852 10.169 2.962 10.204 3.047 10.319 3.149 10.348 3.274 10.284 3.394 10.284 3.45 10.145 3.512 10.057 3.507 9.961 3.595 9.899 3.635 9.819 3.677 9.718 3.771 9.643 3.798 9.555 3.995 6.142 7.753 6.363 11.591 6.529 15.882 6.681 20.26 6.812 20.954 6.815 20.898 11.077" fill="#fff"/></svg>