<?xml version="1.0" encoding="utf-8"?>
<!-- Generator: Adobe Illustrator 25.0.1, SVG Export Plug-In . SVG Version: 6.00 Build 0)  -->
<svg version="1.1" id="Layer_1" xmlns="http://www.w3.org/2000/svg" xmlns:xlink="http://www.w3.org/1999/xlink" x="0px" y="0px"
	 width="200px" height="66.7px" viewBox="0 0 200 66.7" style="enable-background:new 0 0 200 66.7;" xml:space="preserve">
<style type="text/css">
	.st0{fill:url(#SVGID_1_);}
	.st1{fill:#224D55;}
	.st2{fill:#2D323D;}
</style>
<linearGradient id="SVGID_1_" gradientUnits="userSpaceOnUse" x1="9.094947e-13" y1="11.6667" x2="200" y2="11.6667">
	<stop  offset="0" style="stop-color:#2D323D;stop-opacity:0"/>
	<stop  offset="0.5" style="stop-color:#2D323D;stop-opacity:0.5"/>
	<stop  offset="1" style="stop-color:#2D323D;stop-opacity:0"/>
</linearGradient>
<polygon class="st0" points="200,11.2 200,12.2 0,12.2 0,11.2 "/>
<polygon class="st1" points="109.7,4.6 109.6,14 109.5,23.3 104.7,23.2 103.1,23.2 102.6,23.2 95.1,20 90.2,17.9 90.3,17.7 
	90.3,17.7 90.3,17.6 90.3,17.5 90.3,17.4 90.3,17.3 90.4,17.3 90.5,17.2 90.6,17.1 90.6,17 90.6,16.9 90.7,16.9 90.8,16.9 90.8,17 
	90.9,17 91,17 91.1,16.9 91.2,16.9 91.3,16.8 91.3,16.7 91.4,16.6 91.5,16.5 91.5,16.4 91.5,16.3 91.4,16.2 91.5,16.1 91.4,16 
	91.4,15.9 91.4,15.8 91.3,15.8 91.2,15.7 91.1,15.8 91,15.8 91,15.7 90.9,15.8 90.9,15.7 90.8,15.6 90.7,15.5 90.8,15.4 90.8,15.3 
	90.9,15.1 90.9,15 90.9,14.9 90.9,14.8 90.9,14.7 90.8,14.7 90.7,14.7 90.8,14.6 90.9,14.5 90.8,14.4 90.8,14.3 90.8,14.2 91,14.2 
	91,14.2 91.1,14.2 91.1,14.1 91.2,13.9 91.3,13.9 91.4,13.8 91.4,13.7 91.5,13.7 91.4,13.6 91.5,13.5 91.5,13.4 91.5,13.2 
	91.6,13.2 91.6,13.1 91.6,13 91.6,12.9 91.6,12.8 91.5,12.6 91.6,12.5 91.6,12.5 91.6,12.3 91.6,12.3 91.6,12.2 91.6,12.1 
	91.6,12.1 91.7,12.1 91.8,12 91.9,11.9 91.9,11.8 91.9,11.7 91.9,11.6 92.1,11.5 92.2,11.5 92.3,11.4 92.4,11.3 92.4,11.3 
	92.6,11.3 92.7,11.2 92.8,11.1 92.9,11 92.9,10.9 93,10.8 92.9,10.7 92.9,10.7 92.8,10.6 92.7,10.5 92.7,10.5 92.6,10.4 92.5,10.4 
	92.5,10.3 92.4,10.2 92.3,10.2 92.2,10.1 92.2,10 92.3,9.9 92.3,9.8 92.1,9.7 92.1,9.6 92.1,9.5 92,9.4 92,9.2 92,9.1 91.9,9 
	91.8,8.9 91.7,8.8 91.7,8.6 91.6,8.5 91.5,8.5 91.5,8.4 91.5,8.2 91.6,8.1 91.5,8 91.5,8 91.5,7.9 91.5,7.8 91.6,7.7 91.6,7.7 
	91.6,7.6 91.6,7.6 91.6,7.5 91.5,7.5 91.6,7.4 91.7,7.4 91.8,7.4 91.8,7.3 91.8,7.2 91.8,7.1 91.8,7 91.8,6.8 91.7,6.7 91.8,6.6 
	91.7,6.4 91.7,6.3 91.6,6.1 91.5,6 91.6,5.8 91.6,5.8 91.6,5.6 91.7,5.5 91.6,5.4 91.5,5.3 91.6,5.2 91.6,5.1 91.5,5.1 91.5,5 
	91.6,4.9 91.5,4.8 91.6,4.6 91.6,4.5 91.6,4.4 91.6,4.3 91.6,4.2 91.5,4.1 91.5,4.1 91.5,4 91.5,3.9 91.5,3.8 91.5,3.7 91.5,3.6 
	91.5,3.5 91.6,3.4 91.7,3.4 91.8,3.4 91.9,3.3 91.9,3.4 92,3.3 92.1,3.3 92.2,3.3 92.3,3.3 92.3,3.4 92.4,3.4 92.4,3.4 92.5,3.4 
	92.6,3.3 92.7,3.3 92.8,3.4 92.8,3.5 92.9,3.6 92.9,3.7 92.9,3.8 93,3.8 93.1,3.9 93.2,3.9 93.3,3.9 93.4,3.9 93.4,3.7 93.5,3.7 
	93.5,3.6 93.6,3.5 93.6,3.4 93.7,3.3 93.7,3.3 93.8,3.2 94,0 97.5,0.2 101,0.4 105,0.5 109.1,0.6 109.8,0.6 "/>
<g>
	<path class="st2" d="M5.6,28.5c3.1,0,5.6,2.5,5.6,5.6c0,3.1-2.5,5.6-5.6,5.6c-3.1,0-5.6-2.5-5.6-5.6C0,31,2.5,28.5,5.6,28.5z
		 M5.6,37.6c1.9,0,3.6-1.6,3.6-3.5c0-1.9-1.6-3.6-3.6-3.6c-1.9,0-3.5,1.6-3.5,3.6C2,36,3.6,37.6,5.6,37.6z"/>
	<path class="st2" d="M13.1,28.9c0-0.2,0.1-0.3,0.3-0.3h6.3c0.2,0,0.3,0.1,0.3,0.3v1.3c0,0.2-0.1,0.3-0.3,0.3h-4.6v2.9h3.8
		c0.2,0,0.3,0.1,0.3,0.3V35c0,0.2-0.1,0.3-0.3,0.3h-3.8v3.9c0,0.2-0.1,0.3-0.3,0.3h-1.4c-0.2,0-0.3-0.1-0.3-0.3V28.9z"/>
	<path class="st2" d="M21.7,28.9c0-0.2,0.1-0.3,0.3-0.3h6.3c0.2,0,0.3,0.1,0.3,0.3v1.3c0,0.2-0.1,0.3-0.3,0.3h-4.6v2.9h3.8
		c0.2,0,0.3,0.1,0.3,0.3V35c0,0.2-0.1,0.3-0.3,0.3h-3.8v3.9c0,0.2-0.1,0.3-0.3,0.3H22c-0.2,0-0.3-0.1-0.3-0.3V28.9z"/>
	<path class="st2" d="M30.3,28.9c0-0.2,0.1-0.3,0.3-0.3h1.4c0.2,0,0.3,0.1,0.3,0.3v10.2c0,0.2-0.1,0.3-0.3,0.3h-1.4
		c-0.2,0-0.3-0.1-0.3-0.3V28.9z"/>
	<path class="st2" d="M39.9,28.5c1.6,0,2.7,0.5,3.7,1.4c0.1,0.1,0.1,0.3,0,0.4l-0.9,1c-0.1,0.1-0.3,0.1-0.4,0
		c-0.6-0.6-1.5-0.9-2.4-0.9c-2,0-3.4,1.7-3.4,3.6c0,1.9,1.5,3.6,3.5,3.6c0.9,0,1.7-0.4,2.4-0.9c0.1-0.1,0.3-0.1,0.4,0l1,1
		c0.1,0.1,0.1,0.3,0,0.4c-1.1,1-2.4,1.5-3.8,1.5c-3.1,0-5.6-2.5-5.6-5.6C34.3,31,36.8,28.5,39.9,28.5z"/>
	<path class="st2" d="M45.6,28.9c0-0.2,0.1-0.3,0.3-0.3h6.3c0.2,0,0.3,0.1,0.3,0.3v1.3c0,0.2-0.1,0.3-0.3,0.3h-4.6V33h3.8
		c0.2,0,0.3,0.1,0.3,0.3v1.3c0,0.2-0.1,0.3-0.3,0.3h-3.8v2.7h4.6c0.2,0,0.3,0.1,0.3,0.3v1.3c0,0.2-0.1,0.3-0.3,0.3h-6.3
		c-0.2,0-0.3-0.1-0.3-0.3V28.9z"/>
	<path class="st2" d="M63.1,28.5c3.1,0,5.6,2.5,5.6,5.6c0,3.1-2.5,5.6-5.6,5.6c-3.1,0-5.6-2.5-5.6-5.6C57.6,31,60,28.5,63.1,28.5z
		 M63.1,37.6c1.9,0,3.6-1.6,3.6-3.5c0-1.9-1.6-3.6-3.6-3.6c-1.9,0-3.5,1.6-3.5,3.6C59.6,36,61.2,37.6,63.1,37.6z"/>
	<path class="st2" d="M70.7,28.9c0-0.2,0.1-0.3,0.3-0.3h6.3c0.2,0,0.3,0.1,0.3,0.3v1.3c0,0.2-0.1,0.3-0.3,0.3h-4.6v2.9h3.8
		c0.2,0,0.3,0.1,0.3,0.3V35c0,0.2-0.1,0.3-0.3,0.3h-3.8v3.9c0,0.2-0.1,0.3-0.3,0.3H71c-0.2,0-0.3-0.1-0.3-0.3V28.9z"/>
	<path class="st2" d="M84.3,30.5h-2.4c-0.2,0-0.3-0.1-0.3-0.3v-1.3c0-0.2,0.1-0.3,0.3-0.3h6.8c0.2,0,0.3,0.1,0.3,0.3v1.3
		c0,0.2-0.1,0.3-0.3,0.3h-2.4v8.7c0,0.2-0.1,0.3-0.3,0.3h-1.4c-0.2,0-0.3-0.1-0.3-0.3V30.5z"/>
	<path class="st2" d="M90.7,28.9c0-0.2,0.1-0.3,0.3-0.3h1.4c0.2,0,0.3,0.1,0.3,0.3V33h5v-4.1c0-0.2,0.1-0.3,0.3-0.3h1.4
		c0.2,0,0.3,0.1,0.3,0.3v10.2c0,0.2-0.1,0.3-0.3,0.3h-1.4c-0.2,0-0.3-0.1-0.3-0.3v-4.3h-5v4.3c0,0.2-0.1,0.3-0.3,0.3H91
		c-0.2,0-0.3-0.1-0.3-0.3V28.9z"/>
	<path class="st2" d="M102.4,28.9c0-0.2,0.1-0.3,0.3-0.3h6.3c0.2,0,0.3,0.1,0.3,0.3v1.3c0,0.2-0.1,0.3-0.3,0.3h-4.6V33h3.8
		c0.2,0,0.3,0.1,0.3,0.3v1.3c0,0.2-0.1,0.3-0.3,0.3h-3.8v2.7h4.6c0.2,0,0.3,0.1,0.3,0.3v1.3c0,0.2-0.1,0.3-0.3,0.3h-6.3
		c-0.2,0-0.3-0.1-0.3-0.3V28.9z"/>
	<path class="st2" d="M119.9,28.5c1.4,0,2.7,0.5,3.8,1.4c0.1,0.1,0.1,0.3,0,0.4l-1,1c-0.1,0.1-0.3,0.1-0.4,0
		c-0.7-0.6-1.5-0.9-2.3-0.9c-1.9,0-3.5,1.7-3.5,3.6c0,1.9,1.5,3.5,3.5,3.5c0.9,0,1.5-0.3,1.8-0.4v-1.3h-1.2c-0.2,0-0.3-0.1-0.3-0.3
		v-1.2c0-0.2,0.1-0.3,0.3-0.3h3c0.2,0,0.3,0.1,0.3,0.3v4c0,0.1-0.1,0.2-0.1,0.2c0,0-1.6,1-3.8,1c-3.1,0-5.6-2.4-5.6-5.5
		C114.4,31,116.8,28.5,119.9,28.5z"/>
	<path class="st2" d="M131,28.5c3.1,0,5.6,2.5,5.6,5.6c0,3.1-2.5,5.6-5.6,5.6c-3.1,0-5.6-2.5-5.6-5.6C125.5,31,127.9,28.5,131,28.5z
		 M131,37.6c1.9,0,3.6-1.6,3.6-3.5c0-1.9-1.6-3.6-3.6-3.6c-1.9,0-3.5,1.6-3.5,3.6C127.5,36,129.1,37.6,131,37.6z"/>
	<path class="st2" d="M137,29c-0.1-0.2,0-0.4,0.3-0.4h1.6c0.1,0,0.2,0.1,0.3,0.2l3,6.6h0.1l3-6.6c0-0.1,0.1-0.2,0.3-0.2h1.6
		c0.2,0,0.4,0.2,0.3,0.4l-4.8,10.4c0,0.1-0.1,0.2-0.3,0.2H142c-0.1,0-0.2-0.1-0.3-0.2L137,29z"/>
	<path class="st2" d="M148.6,28.9c0-0.2,0.1-0.3,0.3-0.3h6.3c0.2,0,0.3,0.1,0.3,0.3v1.3c0,0.2-0.1,0.3-0.3,0.3h-4.6V33h3.8
		c0.2,0,0.3,0.1,0.3,0.3v1.3c0,0.2-0.1,0.3-0.3,0.3h-3.8v2.7h4.6c0.2,0,0.3,0.1,0.3,0.3v1.3c0,0.2-0.1,0.3-0.3,0.3h-6.3
		c-0.2,0-0.3-0.1-0.3-0.3V28.9z"/>
	<path class="st2" d="M157.5,28.9c0-0.2,0.1-0.3,0.3-0.3h4.4c1.9,0,3.4,1.5,3.4,3.3c0,1.4-0.9,2.6-2.3,3.1l2.1,3.9
		c0.1,0.2,0,0.4-0.3,0.4h-1.6c-0.1,0-0.2-0.1-0.2-0.1l-2.1-4.1h-1.7v3.9c0,0.2-0.1,0.3-0.3,0.3h-1.4c-0.2,0-0.3-0.1-0.3-0.3V28.9z
		 M162,33.6c0.8,0,1.5-0.7,1.5-1.6c0-0.8-0.7-1.5-1.5-1.5h-2.5v3.1H162z"/>
	<path class="st2" d="M167.7,28.8c0-0.2,0.1-0.3,0.3-0.3h0.2c0.1,0,0.2,0,0.3,0.1l6.3,6.7h0v-6.4c0-0.2,0.1-0.3,0.3-0.3h1.4
		c0.2,0,0.3,0.1,0.3,0.3v10.4c0,0.2-0.1,0.3-0.3,0.3h-0.2c-0.1,0-0.2,0-0.3-0.1l-6.3-7h0v6.6c0,0.2-0.1,0.3-0.3,0.3H168
		c-0.2,0-0.3-0.1-0.3-0.3V28.8z"/>
	<path class="st2" d="M184.4,28.5c3.1,0,5.6,2.5,5.6,5.6c0,3.1-2.5,5.6-5.6,5.6c-3.1,0-5.6-2.5-5.6-5.6
		C178.8,31,181.3,28.5,184.4,28.5z M184.4,37.6c1.9,0,3.6-1.6,3.6-3.5c0-1.9-1.6-3.6-3.6-3.6s-3.5,1.6-3.5,3.6
		C180.8,36,182.4,37.6,184.4,37.6z"/>
	<path class="st2" d="M191.9,28.9c0-0.2,0.1-0.3,0.3-0.3h4.4c1.9,0,3.4,1.5,3.4,3.3c0,1.4-0.9,2.6-2.3,3.1l2.1,3.9
		c0.1,0.2,0,0.4-0.3,0.4h-1.6c-0.1,0-0.2-0.1-0.2-0.1l-2.1-4.1h-1.7v3.9c0,0.2-0.1,0.3-0.3,0.3h-1.4c-0.2,0-0.3-0.1-0.3-0.3V28.9z
		 M196.5,33.6c0.8,0,1.5-0.7,1.5-1.6c0-0.8-0.7-1.5-1.5-1.5h-2.5v3.1H196.5z"/>
</g>
<g>
	<path class="st2" d="M0,45.2c0-0.3,0.2-0.6,0.6-0.6h7.4c6,0,10.9,4.9,10.9,10.8c0,6-4.9,10.9-10.9,10.9H0.6c-0.3,0-0.6-0.3-0.6-0.6
		V45.2z M7.6,62.6c4,0,7-2.9,7-7.1c0-4.2-3-7.1-7-7.1H4v14.2H7.6z"/>
	<path class="st2" d="M32.7,44.3c6.2,0,11.2,5,11.2,11.2s-5,11.2-11.2,11.2c-6.2,0-11.2-4.9-11.2-11.2S26.5,44.3,32.7,44.3z
		 M32.7,62.6c3.9,0,7.1-3.2,7.1-7.1s-3.2-7.2-7.1-7.2s-7.1,3.3-7.1,7.2S28.8,62.6,32.7,62.6z"/>
	<path class="st2" d="M47.7,45.2c0-0.3,0.3-0.6,0.6-0.6h3c0.3,0,0.6,0.3,0.6,0.6v13c0,2.6,1.8,4.5,4.5,4.5s4.5-1.8,4.5-4.4v-13
		c0-0.3,0.2-0.6,0.6-0.6h3c0.3,0,0.6,0.3,0.6,0.6v13.2c0,4.7-3.8,8.3-8.7,8.3c-4.9,0-8.6-3.6-8.6-8.3V45.2z"/>
	<path class="st2" d="M80,44.3c2.8,0,5.5,1.1,7.6,2.9c0.2,0.2,0.3,0.6,0,0.9l-1.9,2c-0.2,0.2-0.5,0.2-0.8,0c-1.3-1.2-3-1.8-4.7-1.8
		c-3.9,0-7,3.3-7,7.2c0,3.9,3.1,7.1,7,7.1c1.7,0,3.1-0.5,3.7-0.8v-2.6h-2.5c-0.3,0-0.6-0.2-0.6-0.6v-2.5c0-0.3,0.2-0.6,0.6-0.6h6
		c0.3,0,0.6,0.3,0.6,0.6v8c0,0.2-0.1,0.4-0.2,0.5c0,0-3.2,2-7.7,2c-6.2,0-11.2-4.9-11.2-11.1S73.8,44.3,80,44.3z"/>
	<path class="st2" d="M99.9,45.2c0-0.3,0.2-0.6,0.6-0.6h7.4c6,0,10.9,4.9,10.9,10.8c0,6-4.9,10.9-10.9,10.9h-7.4
		c-0.3,0-0.6-0.3-0.6-0.6V45.2z M107.4,62.6c4,0,7-2.9,7-7.1c0-4.2-3-7.1-7-7.1h-3.5v14.2H107.4z"/>
	<path class="st2" d="M122.5,45.2c0-0.3,0.3-0.6,0.6-0.6h3c0.3,0,0.6,0.3,0.6,0.6v13c0,2.6,1.8,4.5,4.5,4.5c2.7,0,4.5-1.8,4.5-4.4
		v-13c0-0.3,0.2-0.6,0.6-0.6h3c0.3,0,0.6,0.3,0.6,0.6v13.2c0,4.7-3.8,8.3-8.7,8.3c-4.9,0-8.6-3.6-8.6-8.3V45.2z"/>
	<path class="st2" d="M154.8,44.3c3.1,0,5.4,1,7.5,2.9c0.3,0.2,0.3,0.6,0,0.9l-1.9,2c-0.2,0.2-0.5,0.2-0.8,0c-1.3-1.1-3-1.8-4.8-1.8
		c-4,0-6.9,3.3-6.9,7.2c0,3.9,3,7.2,7,7.2c1.9,0,3.4-0.7,4.8-1.8c0.2-0.2,0.6-0.2,0.8,0l1.9,2c0.2,0.2,0.2,0.6,0,0.8
		c-2.1,2.1-4.8,3-7.6,3c-6.2,0-11.2-4.9-11.2-11.2S148.6,44.3,154.8,44.3z"/>
	<path class="st2" d="M166.2,45.2c0-0.3,0.2-0.6,0.6-0.6h12.6c0.3,0,0.6,0.3,0.6,0.6v2.5c0,0.3-0.2,0.6-0.6,0.6h-9.2v5.1h7.7
		c0.3,0,0.6,0.3,0.6,0.6v2.6c0,0.3-0.3,0.6-0.6,0.6h-7.7v5.4h9.2c0.3,0,0.6,0.3,0.6,0.6v2.5c0,0.3-0.2,0.6-0.6,0.6h-12.6
		c-0.3,0-0.6-0.3-0.6-0.6V45.2z"/>
	<path class="st2" d="M188.7,55.9l-7.1-10.4c-0.2-0.4,0-0.9,0.5-0.9h3.2c0.2,0,0.4,0.2,0.5,0.3l5,7.1l5-7.1c0.1-0.1,0.2-0.3,0.5-0.3
		h3.2c0.5,0,0.7,0.5,0.5,0.9l-7.2,10.3v9.9c0,0.3-0.3,0.6-0.6,0.6h-2.9c-0.3,0-0.6-0.3-0.6-0.6V55.9z"/>
</g>
</svg>
