<?xml version="1.0" encoding="utf-8"?>
<!-- Generator: Adobe Illustrator 25.1.0, SVG Export Plug-In . SVG Version: 6.00 Build 0)  -->
<svg version="1.1" id="Layer_1" xmlns="http://www.w3.org/2000/svg" xmlns:xlink="http://www.w3.org/1999/xlink" x="0px" y="0px"
	 width="200px" height="35px" viewBox="0 0 200 35" style="enable-background:new 0 0 200 35;" xml:space="preserve">
<style type="text/css">
	.st0{fill:#FFFFFF;}
</style>
<path class="st0" d="M5.7,32.8H0L14.4,2h1.2l14.4,30.8h-5.8l-2.7-6.1H8.3L5.7,32.8z M10.2,22.4h9.3l-4.7-10.5L10.2,22.4z"/>
<path class="st0" d="M34.2,2.2H44c8.1,0,12.2,4.5,12.2,10.9c0,4.2-1.7,7.6-5.6,9.4l7.8,10.4h-6.3l-6.5-9c-0.9,0.1-1.8,0.1-2.7,0.1
	h-3.3v8.9h-5.4V2.2z M39.6,7.2v12h4c5,0,6.8-2.7,6.8-6c0-3.3-1.7-5.9-6.8-5.9H39.6z"/>
<rect x="63.1" y="2.2" class="st0" width="5.4" height="30.6"/>
<polygon class="st0" points="99.1,2.2 99.1,3.9 82.4,27.9 98.7,27.9 98.7,32.8 73.5,32.8 73.5,31.2 90.2,7.2 74.6,7.2 74.6,2.2 "/>
<polygon class="st0" points="140.1,2.1 141.8,2.1 160.7,21.8 160.7,2.2 166.1,2.2 166.1,33 164.7,33 145.5,13.8 145.5,32.8 
	140.1,32.8 "/>
<path class="st0" d="M175.7,32.8h-5.7L184.4,2h1.2L200,32.8h-5.8l-2.7-6.1h-13.1L175.7,32.8z M180.3,22.4h9.3l-4.7-10.5L180.3,22.4z
	"/>
<path class="st0" d="M118,1.7c-9.2,0-16.3,7-16.3,15.8c0,9,7,15.8,16.3,15.8c9.4,0,16.4-6.8,16.4-15.8C134.4,8.4,127.5,1.7,118,1.7
	 M124.1,12l-0.1,7.2l-0.1,7.1l-3.7-0.1l-1.2,0l-0.4,0l-5.7-2.4l-3.7-1.6l0-0.1l0-0.1l0-0.1l0-0.1l0-0.1l0-0.1l0.1,0l0.1-0.1l0.1-0.1
	l0-0.1l0,0l0,0l0.1,0l0.1,0l0.1,0l0.1,0l0.1,0l0.1,0l0,0l0-0.1l0.1-0.1l0.1-0.1l0-0.1l0-0.1l-0.1-0.1l0.1-0.1l-0.1-0.1l0-0.1l0-0.1
	l-0.1,0l-0.1,0l-0.1,0l-0.1,0l0,0l0,0l0,0l0-0.1l-0.1-0.1l0-0.1l0.1-0.1l0-0.1l0-0.1l0-0.1l0-0.1l0-0.1l-0.1,0l0,0l0.1-0.1l0.1-0.1
	l0-0.1l-0.1-0.1l0.1,0l0.1,0l0,0l0.1,0l0-0.1l0.1-0.1l0.1,0l0-0.1l0,0l0.1,0l-0.1-0.1l0-0.1l0-0.1l0-0.1l0.1,0l0,0l0-0.1l0-0.1
	l0-0.1l0-0.1l0-0.1l0,0l0-0.1l0-0.1l0,0v-0.1l0,0l0,0l0.1-0.1l0-0.1l0,0l0-0.1l0-0.1l0.1-0.1l0.1,0l0.1,0l0.1-0.1l0,0l0.1,0l0.1-0.1
	l0.1-0.1l0.1-0.1l0.1,0l0-0.1l0-0.1l0,0l0-0.1l-0.1,0l0-0.1l-0.1-0.1l-0.1,0l0-0.1l-0.1-0.1l-0.1,0l0,0l0-0.1l0-0.1l0-0.1l-0.1-0.1
	l0-0.1l0-0.1l-0.1-0.1l0-0.1l0-0.1l-0.1-0.1l-0.1-0.1l0-0.1l0-0.1l0-0.1l-0.1,0l0-0.1l0-0.1l0-0.1l0,0l0-0.1l0-0.1l0-0.1l0-0.1
	l0.1,0l0-0.1l0,0l0,0l0,0l0,0l0.1,0l0.1,0l0-0.1l0-0.1l0-0.1l0-0.1l0-0.1l0-0.1l0-0.1l0-0.1l0-0.1l-0.1-0.1l0-0.1l0-0.1l0,0v-0.1
	l0-0.1l0-0.1l-0.1-0.1l0-0.1l0-0.1l0-0.1l0-0.1l0-0.1l0-0.1l0-0.1l0-0.1l0,0l0-0.1l-0.1-0.1l0-0.1l0,0l0-0.1l0-0.1l0-0.1l0-0.1
	l0-0.1l0-0.1l0.1,0l0.1,0l0.1,0l0.1-0.1l0.1,0l0-0.1l0.1,0l0.1,0h0.1l0,0l0.1,0l0,0l0.1,0l0-0.1l0.1,0l0.1,0.1l0,0.1l0,0.1v0.1l0,0
	l0.1,0l0.1,0.1l0.1,0l0.1,0h0.1l0-0.1l0-0.1l0-0.1l0.1,0l0-0.1l0-0.1l0.1-0.1l0-0.1l0.1-2.4l2.7,0.2l2.7,0.1l3.1,0.1l3.1,0.1l0.5,0
	L124.1,12z"/>
</svg>
